<mxfile host="Electron" agent="Mozilla/5.0 (Windows NT 10.0; Win64; x64) AppleWebKit/537.36 (KHTML, like Gecko) draw.io/24.7.8 Chrome/128.0.6613.36 Electron/32.0.1 Safari/537.36" version="24.7.8">
  <diagram name="Page-1" id="N1p0p5gwgTD7Kbm77Et2">
    <mxGraphModel dx="3646" dy="2831" grid="1" gridSize="10" guides="1" tooltips="1" connect="1" arrows="1" fold="1" page="1" pageScale="1" pageWidth="850" pageHeight="1100" math="0" shadow="0">
      <root>
        <mxCell id="0" />
        <mxCell id="1" parent="0" />
        <mxCell id="znl2praUXMHLdkSbyB8k-1" value="Start Program" style="whiteSpace=wrap;strokeWidth=2;" vertex="1" parent="1">
          <mxGeometry x="338" y="-636" width="114" height="33" as="geometry" />
        </mxCell>
        <mxCell id="znl2praUXMHLdkSbyB8k-2" value="Prompt user to enter a number" style="whiteSpace=wrap;strokeWidth=2;" vertex="1" parent="1">
          <mxGeometry x="275" y="-553" width="238" height="33" as="geometry" />
        </mxCell>
        <mxCell id="znl2praUXMHLdkSbyB8k-3" value="Check if input is a non-negative integer" style="whiteSpace=wrap;strokeWidth=2;" vertex="1" parent="1">
          <mxGeometry x="348" y="-469" width="300" height="33" as="geometry" />
        </mxCell>
        <mxCell id="znl2praUXMHLdkSbyB8k-4" value="Show error and ask again" style="whiteSpace=wrap;strokeWidth=2;" vertex="1" parent="1">
          <mxGeometry x="173" y="-367" width="194" height="33" as="geometry" />
        </mxCell>
        <mxCell id="znl2praUXMHLdkSbyB8k-5" value="Convert input to integer n" style="whiteSpace=wrap;strokeWidth=2;" vertex="1" parent="1">
          <mxGeometry x="417" y="-367" width="203" height="33" as="geometry" />
        </mxCell>
        <mxCell id="znl2praUXMHLdkSbyB8k-6" value="Call recur function with n" style="whiteSpace=wrap;strokeWidth=2;" vertex="1" parent="1">
          <mxGeometry x="419" y="-284" width="199" height="33" as="geometry" />
        </mxCell>
        <mxCell id="znl2praUXMHLdkSbyB8k-7" value="Is n equal to 0" style="rhombus;strokeWidth=2;whiteSpace=wrap;" vertex="1" parent="1">
          <mxGeometry x="443" y="-201" width="151" height="151" as="geometry" />
        </mxCell>
        <mxCell id="znl2praUXMHLdkSbyB8k-8" value="Return 1" style="whiteSpace=wrap;strokeWidth=2;" vertex="1" parent="1">
          <mxGeometry x="295" y="18" width="76" height="33" as="geometry" />
        </mxCell>
        <mxCell id="znl2praUXMHLdkSbyB8k-9" value="Return n times recur of n minus 1" style="whiteSpace=wrap;strokeWidth=2;" vertex="1" parent="1">
          <mxGeometry x="420" y="18" width="256" height="33" as="geometry" />
        </mxCell>
        <mxCell id="znl2praUXMHLdkSbyB8k-10" value="Store result in factorial variable" style="whiteSpace=wrap;strokeWidth=2;" vertex="1" parent="1">
          <mxGeometry x="210" y="102" width="245" height="33" as="geometry" />
        </mxCell>
        <mxCell id="znl2praUXMHLdkSbyB8k-11" value="Print result to user" style="whiteSpace=wrap;strokeWidth=2;" vertex="1" parent="1">
          <mxGeometry x="257" y="185" width="151" height="33" as="geometry" />
        </mxCell>
        <mxCell id="znl2praUXMHLdkSbyB8k-27" value="" style="edgeStyle=orthogonalEdgeStyle;rounded=0;orthogonalLoop=1;jettySize=auto;html=1;" edge="1" parent="1" source="znl2praUXMHLdkSbyB8k-12" target="znl2praUXMHLdkSbyB8k-26">
          <mxGeometry relative="1" as="geometry" />
        </mxCell>
        <mxCell id="znl2praUXMHLdkSbyB8k-12" value="End Program" style="whiteSpace=wrap;strokeWidth=2;" vertex="1" parent="1">
          <mxGeometry x="280" y="269" width="105" height="33" as="geometry" />
        </mxCell>
        <mxCell id="znl2praUXMHLdkSbyB8k-13" value="" style="curved=1;startArrow=none;endArrow=block;exitX=0.49;exitY=1.01;entryX=0.5;entryY=0.01;rounded=0;" edge="1" parent="1" source="znl2praUXMHLdkSbyB8k-1" target="znl2praUXMHLdkSbyB8k-2">
          <mxGeometry relative="1" as="geometry">
            <Array as="points" />
          </mxGeometry>
        </mxCell>
        <mxCell id="znl2praUXMHLdkSbyB8k-14" value="" style="curved=1;startArrow=none;endArrow=block;exitX=0.68;exitY=1.02;entryX=0.5;entryY=-0.01;rounded=0;" edge="1" parent="1" source="znl2praUXMHLdkSbyB8k-2" target="znl2praUXMHLdkSbyB8k-3">
          <mxGeometry relative="1" as="geometry">
            <Array as="points">
              <mxPoint x="498" y="-494" />
            </Array>
          </mxGeometry>
        </mxCell>
        <mxCell id="znl2praUXMHLdkSbyB8k-15" value="No" style="curved=1;startArrow=none;endArrow=block;exitX=0.38;exitY=1.01;entryX=0.7;entryY=-0.01;rounded=0;" edge="1" parent="1" source="znl2praUXMHLdkSbyB8k-3" target="znl2praUXMHLdkSbyB8k-4">
          <mxGeometry relative="1" as="geometry">
            <Array as="points">
              <mxPoint x="389" y="-402" />
            </Array>
          </mxGeometry>
        </mxCell>
        <mxCell id="znl2praUXMHLdkSbyB8k-16" value="" style="curved=1;startArrow=none;endArrow=block;exitX=0.5;exitY=-0.01;entryX=0.29;entryY=1.02;rounded=0;" edge="1" parent="1" source="znl2praUXMHLdkSbyB8k-4" target="znl2praUXMHLdkSbyB8k-2">
          <mxGeometry relative="1" as="geometry">
            <Array as="points">
              <mxPoint x="270" y="-494" />
            </Array>
          </mxGeometry>
        </mxCell>
        <mxCell id="znl2praUXMHLdkSbyB8k-17" value="Yes" style="curved=1;startArrow=none;endArrow=block;exitX=0.52;exitY=1.01;entryX=0.5;entryY=-0.01;rounded=0;" edge="1" parent="1" source="znl2praUXMHLdkSbyB8k-3" target="znl2praUXMHLdkSbyB8k-5">
          <mxGeometry relative="1" as="geometry">
            <Array as="points">
              <mxPoint x="519" y="-402" />
            </Array>
          </mxGeometry>
        </mxCell>
        <mxCell id="znl2praUXMHLdkSbyB8k-18" value="" style="curved=1;startArrow=none;endArrow=block;exitX=0.5;exitY=1;entryX=0.5;entryY=0;rounded=0;" edge="1" parent="1" source="znl2praUXMHLdkSbyB8k-5" target="znl2praUXMHLdkSbyB8k-6">
          <mxGeometry relative="1" as="geometry">
            <Array as="points" />
          </mxGeometry>
        </mxCell>
        <mxCell id="znl2praUXMHLdkSbyB8k-19" value="" style="curved=1;startArrow=none;endArrow=block;exitX=0.5;exitY=1.01;entryX=0.5;entryY=0;rounded=0;" edge="1" parent="1" source="znl2praUXMHLdkSbyB8k-6" target="znl2praUXMHLdkSbyB8k-7">
          <mxGeometry relative="1" as="geometry">
            <Array as="points" />
          </mxGeometry>
        </mxCell>
        <mxCell id="znl2praUXMHLdkSbyB8k-20" value="Yes" style="curved=1;startArrow=none;endArrow=block;exitX=0;exitY=0.79;entryX=0.49;entryY=0.01;rounded=0;" edge="1" parent="1" source="znl2praUXMHLdkSbyB8k-7" target="znl2praUXMHLdkSbyB8k-8">
          <mxGeometry relative="1" as="geometry">
            <Array as="points">
              <mxPoint x="333" y="-16" />
            </Array>
          </mxGeometry>
        </mxCell>
        <mxCell id="znl2praUXMHLdkSbyB8k-21" value="No" style="curved=1;startArrow=none;endArrow=block;exitX=0.64;exitY=1;entryX=0.5;entryY=0.01;rounded=0;" edge="1" parent="1" source="znl2praUXMHLdkSbyB8k-7" target="znl2praUXMHLdkSbyB8k-9">
          <mxGeometry relative="1" as="geometry">
            <Array as="points">
              <mxPoint x="548" y="-16" />
            </Array>
          </mxGeometry>
        </mxCell>
        <mxCell id="znl2praUXMHLdkSbyB8k-22" value="" style="curved=1;startArrow=none;endArrow=block;exitX=0.46;exitY=0.01;entryX=0.5;entryY=1;rounded=0;" edge="1" parent="1" source="znl2praUXMHLdkSbyB8k-9" target="znl2praUXMHLdkSbyB8k-7">
          <mxGeometry relative="1" as="geometry">
            <Array as="points">
              <mxPoint x="519" y="-16" />
            </Array>
          </mxGeometry>
        </mxCell>
        <mxCell id="znl2praUXMHLdkSbyB8k-23" value="" style="curved=1;startArrow=none;endArrow=block;exitX=0.49;exitY=1.02;entryX=0.5;entryY=-0.01;rounded=0;" edge="1" parent="1" source="znl2praUXMHLdkSbyB8k-8" target="znl2praUXMHLdkSbyB8k-10">
          <mxGeometry relative="1" as="geometry">
            <Array as="points" />
          </mxGeometry>
        </mxCell>
        <mxCell id="znl2praUXMHLdkSbyB8k-24" value="" style="curved=1;startArrow=none;endArrow=block;exitX=0.5;exitY=1.01;entryX=0.5;entryY=0.01;rounded=0;" edge="1" parent="1" source="znl2praUXMHLdkSbyB8k-10" target="znl2praUXMHLdkSbyB8k-11">
          <mxGeometry relative="1" as="geometry">
            <Array as="points" />
          </mxGeometry>
        </mxCell>
        <mxCell id="znl2praUXMHLdkSbyB8k-25" value="" style="curved=1;startArrow=none;endArrow=block;exitX=0.5;exitY=1.02;entryX=0.5;entryY=-0.01;rounded=0;" edge="1" parent="1" source="znl2praUXMHLdkSbyB8k-11" target="znl2praUXMHLdkSbyB8k-12">
          <mxGeometry relative="1" as="geometry">
            <Array as="points" />
          </mxGeometry>
        </mxCell>
        <mxCell id="znl2praUXMHLdkSbyB8k-26" value="&lt;font style=&quot;font-size: 24px;&quot;&gt;End&lt;/font&gt;" style="ellipse;whiteSpace=wrap;html=1;fillColor=#e51400;fontColor=#ffffff;strokeColor=#B20000;" vertex="1" parent="1">
          <mxGeometry x="240.87" y="373" width="184.25" height="83" as="geometry" />
        </mxCell>
        <mxCell id="znl2praUXMHLdkSbyB8k-29" style="edgeStyle=orthogonalEdgeStyle;rounded=0;orthogonalLoop=1;jettySize=auto;html=1;" edge="1" parent="1" source="znl2praUXMHLdkSbyB8k-28" target="znl2praUXMHLdkSbyB8k-1">
          <mxGeometry relative="1" as="geometry" />
        </mxCell>
        <mxCell id="znl2praUXMHLdkSbyB8k-28" value="&lt;font style=&quot;font-size: 24px;&quot;&gt;Start&lt;/font&gt;" style="ellipse;whiteSpace=wrap;html=1;fillColor=#008a00;fontColor=#ffffff;strokeColor=#005700;" vertex="1" parent="1">
          <mxGeometry x="302.88" y="-800" width="184.25" height="83" as="geometry" />
        </mxCell>
        <mxCell id="znl2praUXMHLdkSbyB8k-30" value="&lt;font style=&quot;font-size: 24px;&quot;&gt;&lt;b&gt;6.  Write a recursive function to print the factorial for&amp;nbsp; &amp;nbsp; &amp;nbsp; &amp;nbsp;a given number.&lt;/b&gt;&lt;/font&gt;" style="text;whiteSpace=wrap;html=1;" vertex="1" parent="1">
          <mxGeometry x="130" y="-1000" width="610" height="60" as="geometry" />
        </mxCell>
        <mxCell id="znl2praUXMHLdkSbyB8k-31" value="" style="shape=image;verticalLabelPosition=bottom;labelBackgroundColor=default;verticalAlign=top;aspect=fixed;imageAspect=0;image=data:image/png,iVBORw0KGgoAAAANSUhEUgAAA1YAAAGSCAYAAADgulDgAAAAAXNSR0IArs4c6QAAAARnQU1BAACxjwv8YQUAAAAJcEhZcwAADsMAAA7DAcdvqGQAAHK7SURBVHhe7d1viNxmni/671y93X0zp+kQx8aX1VgxTb8Ic8b4aFZ32ZNXFXR204Tcxnlxt4eAjmVvqEE2xhxw+kLHcAkmFiN8E2UEZrxvYupeTGdyRPQqZzi3ZnUazxnyomk65dFiE08HN715M/tWzH3xSFUqlapKqj/dVd3fDxTY0tOqpx6pqp5fPc/z0w+ePn36Zwxw5syZ/CYiIiIiIiLK+F/yG4iIiIiIiKgaBlZERERERERjYmB1bAUwNRNBfnNlkzoOEREREdHxNfHAate8hA3pEjbMx/ldI9jDrnMPrpQcM3k8Yi9/iAiOpsMLAUT5fRVFAEIPusTgioiIiIion4kHVpO0a15Dw2piP7+DBgpMBVaowm65qMn5vRXJNbgtGyo86CZDKyIiIiKiIrMbWEWf4zee+OeifR1X44dYTx5v1fKFqS0woXuAaj9AfdygKiXX8cBWAU8HYysiIiIiol6zG1g9+TYZqTqLZf0CFvL7qUAE57YHqDYeTCyqEuT6LRgAvNvO2LMLiYiIiIiOmzEDqz3smje71kA1klGmXr3rpVzzc+weVi898CFJdyFpW4jwPQLzn8T/pbvQzK2CYOF7BI4PLSmTlgt6CwrRH2BqnWNK0j9BM//QddzATPZp3c/X3m7+IbOxan0BBHdghYC6qqNfWBU5GiRJgxNFCBwTmiRBkiRImgmn8KCpGm7YKhBauDNk1CowxXNwdIuIiIiITooxAqvHeCRdQ8N7VmIN1B6aWu96qX3vMzSUe9hNN0SfdwIvvZlsfIavlEzyCu1zHHQOUV14gDvmr6B7naOE3m+hZIMafA9H+xV06xuEma2h91voit+bxCHwISm/hhdma3aA0Pv10CBkqFL1FYJND4CKVb1fWJUK0VhToFte5/WFHixlcIIKWV+FCsDbHFQqwKYXAgg5ukVEREREJ8bIgdWu+RG2ATFVz7/bXv+0auRLAgfOL/BVKMq+npZtXccyAKCJxkQyCJb1DTwPMPyfIY6voWUnkwy9b9pBReT8V1ghACzATsrFrb+HeGnfQO8Kav4AU/9G/FN9FX7rmigf/wwt/1UsZUqOZnh9hQitbQDqKobGVQDCEFANH604Rhy34BsA4GFgzCTrWFUBbLcGBEw1rBgqABXGrf4jZ0REREREx8mIgdVj7LQTS/wcb9VO5Qtk7GG38QxIymppWfkC/sY+K/69vSdGoeQ3YaZJKnwt+fuzeL3VSVyx3nxz7PVWqv0zuLUfAgBk5d8lW/8VrQgAvoffEKNDqv2fUE/KQf4RbqRBzfa/tgOLyPlniKZYgP1Az2Th+yHkmo76BBJtDK5v6gl2QgDLSrlgxvDRdGtJWRm1FRE2bncfNEeGsgwg3MGT/K6MmttEHDfhjp2SkIiIiIhoPowWWEV77Sl9i8qgoAoA/oj9ZL7ZvnWt635UH1si4EL47XjT+ypZwKqeBEsAUNOTEaZ/SLLofS8CFACh9avMmqm7UKykluFBO7B4spNsU18tNVJU3bD6jsZYmUDER0REREREwMiBFREREREREbVNOLDaw4FYeJXxChZV8a9Fu7MWq/vxHs7n/+zI/BBLSX1VO1lf1fPQkY73nFtKpgeG38AfNIuurz9gs28mxSrOiXoPXP80rnQd1xLO5XcREREREZ1gowVW8gUsJ8HH9u00S5/I/CeSVGSdwvlVsZZq3/oFHgV7+QIz5ofQV0WwFFr/FWbwfb5AF1l/FaIpDmCt+Zl07N8jCnyYTufvO0HYAZ5EIkW7o/06WaM1rnT9U2PEAK+EyEejxDouplsnIiIiopNmtMAqEywh/AwfS5ewIYmgalFNtmcs1N9OArFn2Na711ltSJfgOrMVbMn1n8JQAeAAnt69zkqS7kLLBEuQL+JBmtQi/Aa6kpb7FRT9myRzYlK0HYQl5ZRfi/tOqeOm4xBEAooQjSlFVpHfQDh0fRbTrRMRERHRyTNiYAUs1D/EVVvDYnuLSLtu3jrTVU64gLead7FqnM2Un2U/gtv8GXxjIQmEBpPr/4CW/9cwugKkBajG3+NBPZN4Qr6IB34aXIkyhv0zNG+lmf7GVLsBcQ/fOwPvRzWaCH4jBFQbNwbFVUy3TkREREQn0A+ePn365/zGrDNnigIlmlmBCUn3oNotNMdJG5gTORoUK4Thx3AHBlZERERERCfPyCNWNKNqLnwDCK01OJOahxc5WLNCwPAZVBERERERFWBgdQzVXB8GQliKmUmmMaIogKlYCFUbLUZVRERERESFGFgdSzW4sS8ScIw7G1AGoBrwm/WxD0VEREREdFxxjRUREREREdGYOGJFREREREQ0JgZWREREREREY2JgRURERERENCYGVkRERERERGM6kckrdp2baFjPsGi8g7fdN7GQL9BlD7vOI/zGamI/s3XZf4i3mH2ciIiIiIhO5ojVY+xYzwAA+94/Y3fIfZ52zWto5IIq6ifCd/+Pid+8IeGL5PGbOwH+LV+MiIiIiOiYOYGB1QUs2WcBAIvGT3F+0M2Zos/xG0/8c9G+jqvxQ6wnD45W9frujoLf3ffwp8y2P32l47/9o8PgioiIiIiOtRMYWAHn6x9iPX4Ic9g0wCffJiNVZ7GsXxhc9qT7HyZ+9xWAvzLwEy/G330Z4+88H6f+CsC/WPjd/zNkaJCIiIiIaI6dnMAquIcN6VLucQ+7+XJTFDkaJEmDE0UIHBOaJEGSJEiaCWfO447v/j8PgIpX/4uLl08nG0/X8O//i42/BPCn3/iFo1aBKdrEDPJ7iIiIiIjmx8kJrMqKPoebBl56M9n4DF8pmYBM+xwHuT8rL0RjTYFueQjbmzxYion5jS0C7H0F4K9WcSoNqgDgeYDWZw0xNfBfdrqmCAoBNr0QQAjvtoM5jy2JiIiI6AQ7OYFV7b32+qiryRqroxKGgGr4aMUx4rgF3wAAD5sjRlaBmYx89XtonaClStnSnrdE0PS/KvgLQCSxuKPhC0PHN1+l4eM2/vQ8+0cAUMOKoQJQYdzSMWi5GxERERHRLDs5gVVZ8psw0yQVvpZsPIvXW53EFevNIWuzhjF8NN1aEkjIqK0YAIDtVuWQZqb8JZBkBVTwu69CACpOvevjJ++q+aJtNbeJOG7CrTGsIiIiIqL5xcDqCBgrk00pWHNjxPGAR7PeHg2qUraqP32lt7MC/uXrPv7jl038+/+9BjxtT3okIiIiIjqWGFjR+E4r+Mvkn3/5uo2feDH+9katPS3wT08BYBl/mV1/RURERER0jDCwOgaqrJuqUra8c/jLv4KY+vdOvZMVEACe+9j7FwB/tdQOvoiIiIiIjhsGVjQBMk79rQogxDf/l4nv0iQVzwP8z//Lwp8AnPo/6skIVjemWyciIiKi4+DEBFYHzs12uvSPrWfJ1iYaE0mhfrSqrJuqUraKv/jfH+DVvwLwLx5+Z0j44g0JXxi6GK163ce//w/5vwDTrRMRERHRsXFiAiuaNhnK/93CT17PZgAUWQH/441+yTqYbp2IiIiIjocfPH369M/5jVlnzpzJbyIiIiIiIqIMjlgRERERERGNiYEVERERERHRmBhYERERERERjYmBFRERERER0ZgYWBEREREREY2JgRUREREREdGYGFgRERERERGNiYEVERERERHRmBhYERERERERjYmB1Ql1EHyOR9pNbJiP87uOgQjf3dHwmzckfPGPDv4tv5uIiIiIaMIYWJ1Ie9i9/Rm2w2f5HfPtuQiovnhDwe++CvGn/H4iIiIioilhYEXHxnefiYAKUPHq/2njVL4AEREREdGU/ODp06d/zm/MOnPmTH4THYbgHjb0JqC+g6vNCzgwf4GGJ0aYFo138Lb7Jha6/mAPu84j/MZqYj/Zsmi8g7+98SbOy+L/B85NfGwNHqVatO/CrIuQZNe8hIaHpA6d52tvN65j3b0gNlaob/r3i/ZdvK08wv+rp3U+i2X753gref7K/oeD3/x/Cn5yo4a/QID/+YaOvb+y8R//7zr+Il+WiIiIiGiCOGI168Jv8d/Na+0gBQD2vc/wcdfaqD00tWtoZIKqtFxDuYfdzLapK1XfZLt1DR+3gyoAeIZt6xoeBV3FyvsPdfztjRqDKCIiIiI6dAysZl4T2x6w7N/FevwQV+2zYrO31Q6YDpxf4KsQAM7i9aTceus6lpO/byRBzUL9Q7EvvovX1eSPjevJNvFIR6tGN7y+XdR3sNp6iPU4rS+wvdkbhBERERERzTIGVnNg0b6Lt2oi4FlQ0qmZ3+IggpgC2Eim3Nk/h5aUg3wBf5MGNdt7OEj+6jAMrm+WhtVmOlXxApaM/H4iIiIiovnAwGrmncWynhlFqr2XjC59CE0GgD9iPxS79q1r2JAutR/t9VTht4cYWA2rb4Z6JrdOjIiIiIhoPjGwIiIiIiIiGhMDq7n3ChaT9VKLdrK+qufxHs7n/2xkj7Hj5bcREREREZ1sDKzm3imcXxVrqfatX+BRsJcvUOAUFtJMEd4WdnvWPgkLS8karTBZHxU9RlP7CNv5gkREREREJxwDq2Ngof42llWIdOV69zqrDekSXKc32Dq/oiX/aqKhFJdd0H+KxWwZ5SN8FQKLahJwzZr/YeKLN6TkoWMPAP7Fwn9Lt/2jg3/L/w0RERER0QQwsDoWLuCt5l2sGmeTQKiE2nu4amvtaYSF5Dfxtq9ljnkWy/ZdmLd402giIiIioqwfPH369M/5jVlnzrATTURERERENAhHrIiIiIiIiMbEwIqIiIiIiGhMDKyIiIiIiIjGxMCKiIiIiIhoTAysiIiIiIiIxsTAioiIiIiIaEwMrIiIiIiIiMbEwIpobgUwNRNBfvOxd1JfNxEREc0yBlZ0tCIHmsROcnURHE2HFwKI8vuOuQhA6EHndUNEREQzhIHVhBwEn+ORdhMb5uP8LuoRwNFMBBEAWcFyujkKYGrOiYsTRhGYCqxQhd1yUZPze+dVhO/uaPjNGxK++EcH/5bfnZJrcFs2VHjQTYZWRERENBsYWE3EHnZvf4bt8Fl+BxWJgB140BUNTtAC1CUgMKEpOjzs4Akjq8ECE7oHqPYD1I9DUPVcBFRfvKHgd1+F+FN+fxG5jge2Cng6GFsRERHRLGBgRYdPrsFtxmj5y2joFrzQgn57G8t+C3HzOI3ATEME57YHqDYeHIuoCvjuMxFQASpe/T9tnMoX6EOu34IBwLvNUU4iIiI6eicnsAruYUO6hA3tcxxgD7vmTfF/6RJc83Mc5MtjD7vOPbhJmbTcbqYHd+Ckx7iGr8Jko/dRu/yGdAmus9cuv2sm27Xu52tvz04jrFDf9O9dZw8HQbbON/Eo8/xVRY4GSdLgRBECx4QmSZAkCZJmwplIT3YJy2r672Usde8cQQBTkqA5kQhATE3UV5KgmUWd79zrkjRoZlBQLhEFXceUJA1mriFEm0m9oyiBKerRVb5qfQEEd2CFgLqqo19YNf3zNlkv/282/vJ1H//xyyaU/6Dkdw9Qww1bBUILd/LtTURERHTITk5glQq/xX83r6Hhdabt7Xuf4eOutVF7aGrX0LCa2M9s3fc+Q0O5h93MtqkrVd9ku3UNH+vZOj/DtnUNj8bqdIZorCnQLQ9p7IjQg6WMkTggCmBqEhS9AdyyYcCAfwto6AqkdO3VOHZ8mJICy2vXGKFnQclFO4GZe10IEXo6lKJ1XpEDTdG7jgmE8Ky18YOVkvUFgGDTA6BiVe8XVqWmcN6m5T/U8bc3aviL/PYSZH0VKgBvc+ZeFREREZ0wJy+wQhPbHrDs38V6/BBX7bNis7fVDpgOnF8kI1Bn8XpSbr11PUmy0EQjCWoW6h+KffFdvJ6OvBjXk23iYdbLTmzqZ3h9u6jvYLX1EOtxWl9ge7M3CKsiDAHV8NGKY8RxC74BAB5G7svKAJZt+K0m3HPANgDUXDRbPgws4dywmGGI0LPgQYXttxDHMeKWD1HlzU5QkaxTQvt1pa+taAQkgrNmIUS2HZLydjv1xshK1RcAEKG1DUBdxdC4ahrnbRbJOlZVANut3mCYiIiI6BCdwMAKWLTv4q2aCHgWlDPJ1m9xEEFMAWyI0aFF++fQknKQL+Bv0qBme69g6uD0DK5vlobV5ps4LwPABSwZ+f0jMnw03Voy9UxGbUUceLvVU4GSanDdeu9aKrkGt1nvO8WtPAN+3EQ9fQK5hqTKbWLkx4Dffl0Qr81N1u1ko4/IRyPMt0NSvu5OIIHE8PoKT7ATAlhWyrXRxM9bZ6pj/tE9xfEwyVCWAYQ7eJLfRURERHSITmBgdRbLemYUqfZeMrr0ITQZAP6I/WTu1L51rWu91MdWMh0v/PYQA6th9c1Qz2Aht2kSjJVaftPkyHU0YxcTfQZjped4NTdG3H6eZOQHHvSeIEGHh9wIyJMdhNNsh6H1Hc3U6ktEREREPU5gYEVUTSSiMAIg15vJNMjuR3P8YTsiIiKiucbAqscrWEzWSy3ayfqqnsd7OJ//s5E9xo6X30bTlUwfU+3MeqncIzMlUVbEOqpxptAFm5MIzs5hieuJctJ1Z0s4l99FREREdIgYWPU4hfOrYi3VvvULPArKpCs/hYU0h4G31ZWSPWthKVmjFSbro6LHaGofieQNdKjOLYkkFWtmgKjP+WqrrcAAEFoKNCebjl2kM88uL0qDMG8zzSwYITA16F3ZBEeVridqwB9W55MiXf9Wdt0ZERER0ZQwsCqwUH87ub/SM2zr3eus8vemSp1f0ZJ/NdFQissu6D/FYraM8hG+CoFFNQm46NDI9QewVYj06kp+nVX+PlQ1uCKlHkJLh9Iup0C3cmFxEoTBs5Jyigiq1PYNu8YiElCEaBynyOp/mPjiDSl56NgDgH+x8N/Sbf/o4N/yf5OI/MZ0178RERERlcTAqtAFvNW8i1XjbBIIlVB7D1dtrT2NsJD8Jt72tcwxz2LZvgvzVprpjw6PjHpTpFcfdMraai5avg2jK0BSYdgPclkBa3BbNox2MRWG7aPVFNkGx1a7IQJC687s3Y/q0EXwGyGg2rjBuIqIiIiO2A+ePn365/zGrDNn2OknmimBCUn3oNqtE500InI0KFYIw4/hMrAiIiKiI8YRK6J5U3PhG0BorXWt7zpRIgdrVggYPoMqIiIimgkMrIjmUM31YSCEpZgITlpwFQUwFQuhaqPFqIqIiIhmBAMrorlUgxv7Yi3XSZsNKANQDfiZlPhERERER41rrIiIiIiIiMbEESsiIiIiIqIxMbAiIiIiIiIaEwMrIiIiIiKiMTGwIiIiIiIiGhMDKyIiIiIiojExsCIiIiIiIhoTAysiIiIiIqIxMbAiIiIiIiIaEwMrIiIiIiKiMTGwIiIiIiIiGhMDKyIiIiIiojExsCIiIiIiIhoTAysiIiIiIqIxMbAiIiIiIiIaEwMrIiIiIiKiMTGwIiIiIiIiGhMDKyIiIiIiojExsCIiIiIiIhoTAysiIiIiIqIxMbAiIiIiIiIaEwMrIiIiIiKiMTGwIiIiIiIiGhMDKyIiIiIiojExsCIiIiIiIhoTAysiIiIiIqIxMbAiIiIiIiIaEwMrorkVwNRMBPnNwJB9RERERDRpEw+sds1L2JAuYcN8nN81gj3sOvfgSskxk8cj9hZHF21Bk+5C6nr4QzvggfNPkKS70MwtRPmdAwRm8hzmH/K75kb7NWjVXvt0RXA0HV4IFFYqAhB60CUGV0RERESHYeKB1STtmtfQsJrYz++YQVGwBVP7p7kOIPr7AzatAwBA6H0Dv6gjT4cqMBVYoQq75aIm5/cCkGtwWzZUeNBNhlZERERE0za7gVX0OX7jiX8u2tdxNX6I9eTxVi1f+Kh9D//2b+GFIviYafJFNONriONraNkL+b19/AgrSVnVeBV6UUeeDk9gQvcA1X6A+qBzIdfxwFYBTwdjKyIiIqLpmt3A6sm3yUjVWSzrF1A2BKDpqNX/AXF8DU33Igb15WnaIji3PUC18WBgVCXI9VswAHi3ncIZg0REREQ0GWMGVnvYNW92rYFqJKNMvXrXS7nm59g9zN5e9Ac4plgrVPTo/lX/ewSO37UeSTO3EGTqGyXrjiTpV7DCZKP3665jas73nT8oqXPcf4LT0z7fw9F61y21pyJmn1vzC/6+gsDvaaPB67G+R2D+U1eb6X2vh3LS9U2a8z2iIHs+/glmrm37rYXqWeeVvC4zyLSltoUo+gPM5P9a0ZTO5X8HBFvtMkV1EIZfO0CmfbUtREnbZcvniwMAgjuwQkBd1UsGuDXcsFUgtHCn/4kDAASmBknSOLpFRERENIIxAqvHeCRdQ8N7VmIN1B6aWu96qX3vMzSUe9hNN0SfdwIvvZlsfIavlEzyCu1zjDbh7g8wlV/D8sr89fdwtF9Bt75BGi8BQOj9FroyKLCYDFl/FSoA4AANP9dxj56gkVTKWPlRsm0La3rvVMQw/AaWUhScTcMfYEq/gu4ddLXZpITWr6Do2fNxAM/61VhBgKdnAuLwt1CUX4tkEABC79e9x/Z+DUX/bbtMWofu4HmEayc8wB1TtF17k/dbKAXBXbDpAVCxWmE+pqyvQgXgbRY+eyLAphcCCDm6RURERDSCkQOrXfMjbANiqp5/t73+adXIlwQOnF/gq1CUfT0t27qOZQBAE42JZBAcLHL+GWLw5FX4rWSNkf9qsncBdusa3GTtVuT816TDvQDb/xni+Bri1t9DvLRvoCcdXjmZHhfHP4MtIiHA+Ptkm3g06z9MdlQgX8StpB3DxpOuTm7kJx129a9xI7PWbNn4a/itpK7xNcStv+4fnJVV09vHG7YeKzB/nbTvAoy0zeJr8Auuh5Gpf52cu/RcAN5mb/BRheH/LPPaxHWQ1nm7VdBu7Tp0znlohe2Aqey10+0beJ6oS1dbe9/kArEIrW0A6mq1dW6yjlUVwHZrQMBUw4qhAlBh3Co7GkZEREREqREDq8fYaSeW+Dneqp3KF8jYw27jGZCU1dKy8gX8jX1W/Ht7T4xCyW/CTJNU+Fry92fxequTuGK9+eZI662e7IjRANVW21nU5NqrSYf3ADtP0pLfw2+kZf8T6rUkMJJ/hBtph3f7Xwd0UCejtpIEfWE2C1+mbqvnOp1f+SJc9yJqciaIk8+JzjSAcKcgQJioP2AzuR5U+z/BTdtsol6F37yYnLsfYWUSAZv617iRravx08HJINRsHX6I+q00MP9XtCKMde2o9s/a7SYr/y7Zmh439QQ7IYBlpWLgI0NZBhDuoH2ZF6i5TcRxE25hmkEiIiIiGmS0wCraa0/pW1QGBVUA8EfsJ3Oi9q1rXfej+tgSARfCb0ec3lfeuSXRsQ0bYXutSxR80x5lWTqXlvxedF6T6WfpmhdJugslSTmO8GBgB3UiioK+9jTABazq3cGLWB+UXd+UmeY2bdG/JqOXwLIyjaAKgLqA9imalOV/1xWgqEvD6p6rw7mF9qigOEejXju589keKfyHwYEeEREREc2M0QKrOSTXfyoClfAb6ErS2dW/ETvVWUwh3hnlSKe7tacB5kdWAj9ZHzSd9U1ERERERDTYhAOrPRykQxdtr2AxmZK2aHfWYnU/3sP5/J9NWjo6paajDACwANX4e7Sa2RTiP8RSUkC1M2uWuh46DuNWWu0kFt43CDLTzNpJKwCRLOF2GiCm639y676OzPdiTdCR6kxTnLR2oNse8Zz2tXNOHH/gWqki6dqspcmP+hERERERMHJgJV/ActKB3L6dZukTmf9EkoqsUzi/KtZS7Vu/wKNgL1/gEHSCD3X1P7VvkBvH/4Cm+6PcepUfQl9Npg1a/xVmUGZ90g/FGhYkQVC1Xm9/7XVS32DTSaYB5pJWdFkGzslI0n2nSRQOQWY9l3c7TRMusuMdWh0y0z0RHuBJBJFeX0uTakxWFGxhLZ3e1x7xHOXaqSJdK9XIrLsrIfLFtTNkbRbTrRMRERGNbrTAKhMsIfwMH0uXsCGJoGpRTbZnLNTfTgKxZ9jWu9dZbUiX4DrTDrY6gU9+7Yu4j5DfFQzJ9Z/CUCHSaeu95YvuTdVONoHOVMN+ZcvrJEjwrN8iRC5pRVKmE9T9FkqyvkpPO/05nXtkZdb94Bvo7bbo3D+pfNlOQIGwUwcrBFR1lFQjo+mkqU/OgfLrydah/druQtHF+QAWYD/ojHiOcu1UUVsxAIRoVIisIr+BEICx0i8iB9OtExEREY1pxMAKWKh/iKu2hsX2FpF23bx1pquccAFvNe9i1TibKX+4ajfS9OMFwm9y9xj6Edzmz+Ab2WmDQ9R0tOxXoZb+g5LaSSzQm+QgUXNFXTsWYNh/PzRF+iTJ9X8Qr7+9RaRdb95KM9wdAvkiHvi5Otjj1+Hcyl/D6JpCis400lY+wcQI104VtRsQ9/u9U3xPrB4R/EYIqHb/kU6A6daJiIiIxvSDp0+f/jm/MevMmaJAad78AaYkpoQZfietNSASP2jJjWcNv3MvK6KZFZiQdA+q3UJzSNrAyNGgWCEMP+a1TURERDRFI49YzZVMOnC0sju+R9D611wCAqIZV3PhG0BorcEZNGcvcrBmhYDhM6giIiIimrITN2LVj2r8PZpuNtveJA1//o5X4Y+VOW6WsR0mJ4Ap6fBgwG+57Ztet0UBTEWHp9poNeuc2kdEREQ0ZSdjxAo/gtv6e9gF615U9VXY/s+mGFQRTUMNbuyLRBlFUZMMQDXgM6giIiIiOhQnZMSKiIiIiIhoek7IiBUREREREdH0MLAiIiIiIiIaEwMrIiIiIiKiMTGwIiIiIiIiGhOTVxTYNS+h4QFQ38HV5ptYyBfoY9e5iYb1DIvGO3jbLfi76HO4ymfY79qoYTV+D+e7thERERER0TzhiNXEPMaO9QwAsO/9M3YH3bj1qAT3sCFdGvp4FOT/kIiIiIiIBmFgNTEXsGSfBQAsGj/F+aKbB8lvwowfYj1+iKtJWSIiIiIimn+cClhg1KmAVRw4N/Gx9ewIpwLuoaldw1fhdF8nEREREdFJcAJGrPbQ1IZMcUunyGmf4yC7ffkUEHwON/n7DekmHjl72RJ9ptfdw253qRHtYde5BzdzbNf8/PCmGXa1yx52zZtd9ci21a6Z1DHXhu3t5uPMVoz02gJTgyRpMPudRyIiIiKiI3ICAquO/VYuKMpbPtU9auN9hI/1z7AfphueYdu61j9AmygxotSwml3JLva9z9BQJhW4lRR+i/9uXkPDE2vIkNTj455gqaxRXluATS8EEMK77WBA/EVEREREdOhOQGB1CgvL+W3dDlrfAgAWl17J7wLUd7Daeoj1+DrSw2xvZgKK2ntYn8K6qQPnF2KaHs7idf+ueI5WWocmGiMHNaNoYtsDlpN6tF+nt9UnCBpstNdWw4qhAlBh3NJRtISNiIiIiOionIDAClhYEoHA/s4fgWR904Z0CW4yre9gR4zELCqnMn8Fsf6p+WaSiOIClozc7qnZw24jqZP9c2i1pF7yBfxNGtRs73VPW5yyRfsu3krqsaCk6+6+xUHloaPRX1vNbSKOm3BrDKuIiIiIaLacjMCqHQigq2O/33hc2IFvU88cUUKHP7anH+5b17rWb4mEF2J63sC6T9RZLOuZoLM9SvchtMoxzqy9NiIiIiKi8Z2IwArnzmARyUhI9BjbIbCongXCf8ZutIeDbQA4i8Vz+T8kIiIiIiIa7mQEVvIpEViF3+LA/2fs4yyWb/0Ui3iGbV9MDwTOYKHy6Mu0vIJFVfxr0U7WIPU8jiJFe1WPsePltx2X10ZERERE1HEyAqt2Z/5b/KbxDFB/ivO1C1hWgf3G/4vt8Cin/RU5hfOrybow6xd4FAzJZjgD0nVsCJN1V9FjNLWPsJ0vOMZrY7p1IiIiIppVJySwSj3Dfggsrl7AQtrBD5+JlN/5VOslpYkwutYIoYlGunYoc1+nKmUX6m9jWYVI8a53r0XKJt6YFQv6T8WoIJpoKJewoXyEr9Ipl/myI702plsnIiIiotl1QgKrbMr1TiKGbFKLwlTrR+oC3mrexapxNglYZpz8Jt72tUxdz2LZvgvzVjZxSGqU18Z060REREQ0u37w9OnTP+c3Zp05U9QxJiIiIiIiotQJGbEiIiIiIiKaHgZWREREREREY2JgRURERERENCYGVkRERERERGNiYEVERERERDQmBlZERERERERjYmBFREREREQ0JgZWdKQiR4MkSdDMIL+LJuDAuYkN6RJc83F+1zESwNRM8Aoiqib6UoN0WYJ2fz7ePfNWXzr+n83T78MMasNB++ioMLCiIxTBb4QAgNDb5IfDxO1ht/EMALDvbWE3v/tYiOBoOrwQQJTfBwT3JUiXJUhJRyz/f6KTK4L/u+Tzd2sePn/nrb7HU/4zNP//LhGA0IMuHdfO/7T7MIO/345/+84nBlZ0hGToqyoAQDVWUMvvnjGRo0Gbqw+wUzi/ehYAsGhcxPn87hlz4NyEK92rFAAGpgIrVGG3XNTk/F7g3Mvi+spTXz6X2xLAvJx0EAoe5te54hVFX2rQLs/TtUPzqNp1JkP/SfL5e3H2P3+nVd9qbUblP1MByDW4LRsqPOhTG9EZbnrf3dPtwwz7fpuV9qVuDKzoSMn1JuI4RtOd9EfS5D3ZCSF+m5ofC/UPsR4/hOleyO+aOQc7z7Cf3zhIYEL3ANV+gHrRl05G+qXfr1MwbU++m79rh+ZP1etMfqOJ+NMYzXdn//MXU6pv1TYjofRnqlzHA1sFPB1H1fef5nf31PowZb/fZqB9qRsDKyKaQxGc2x6g2ngw8Funoos+4k/jnof7Wr4gERGVIddvwQDg3XYKZ7RRXrXvN7bvbGFgNaPSBZE9v0AEplgo6eTfPhECx4QmSZCSh2Y6CPLFgIKyGjQzKHhDBjDbzxXBMUWd0mP3li9LHDc9liRJkHpeqCDaQYMT5eqsmcg3QacsEJUqW6J9k/9LkgTdAwAPeq7uvefiqD3GI+kSNrKPPskrRHKLm2hGe9h17sFNy2v30My9rE5Z4KBU2Ut41NO+90QyDWev6/8b0iU0PABoopGre7tsVnAHVgioqzoGfe3ILy8X/n/55UF/NZhYQK/BeREh+NKElk4Z/MCE8yJT8GuzPZVQ34K4dnJTDLUv89dO7piXNWj3+7w3238fwbkvFvVLlyVo98d5bwJ4EcC5r2XqIEH7wESQfW0VlW6ztghBiTpUP2451Y9b9ryh/dqy10HnoXUfv8y5qHydFUx7LVof88IRz/tB8fUk1tbk6lupHcoqWd8q561ym6Hia6twjksfd7T3vKiHNvZ05tRon6k13LBVILRwp/jUVZTvwxT0dyp/d1fp74zShxneL2kr+f3WMen2pXEwsDomAlOBbnldw92hZ0EveJf1lg0RejoULf/hkdjxYUoKLC/zF54Fpc8HyeSFaKzl6hx6sJTiOdONNQlKT1nxwUZFnmF77RoaVrMzFS9s4iuleL3T9tolfNxTVgRchyXY9ACoWNWHfO285oqpQ28k5ZL/jz8CFaLxSwX6ZuY6e+7BWi++JssK7ueOiRDhlg6lT+cW3/kwLyuwtjJ/sWVB6dPxHC6C80sd1lb31JnwuQd9zNdWvs0iOB8o0AvrkO+UosJxqyp/3PLnrfPahpvmuSjhJR2rpwE8b8DvafMAm1sATq9CfymztXQ7TFP581ZF+ddW5RxXOW6i0ns+wOZWCCCE90Wf41U14meqrK9CBeBtFtWzmt4+TP/+TmVT6u9U6ZeU/n7LmGT70ngYWB0LATY9AIaNVhwjTh4t34axlC8q5u3C8DNlW/CN/r92hJ4FDypsvyXKt3wYADByFpwa3PZzJ8caIgwBtV3nFnxRAfR+hoS9ZW1VfNn6BZ9gw9TcdnuK5zTgZ9o4jmM0SwzVFwnM3C9e+Ue/QHeoC3grfoj1+CHW4+vo/n2x2H4ILBrXcTV+iPX4LlYNAGhip6d9n/WWtc+K4MwvGFkapvZeUs+HyXNqWG3XXTzM+qncH0VobQNQV1Hhe6ecLb3gF+biDln4HFAv+mh9GiP+tAX/IsQ1mf4ynHQ44k/jZJ8BPzfFsN05gfgVXd8S0xHFMdPjqsBzC3cKfnEOt5L35pWWKL+RvJ/GyZr2itE5Xr/XNqKhbQYg+nIN1nMAp234G7l2QAjL731lZY47ilLHrXLevr7Tfm3tsuk5gwH/0ybqmUCl1Lmoep2hBre9b9Dnr4z63xnis/P3uU+irzfhATD+rt75Rb1KO1RStr4dQ89b1Tar8tqqnOMqx01Ue8/XsHJRBaDC+Luyox9TIutYVQFst0b8XkuV7O+M+N1drr9TtQ9TpV8y4vfbxNqXxsXA6jjxGvAzY+FyrQ633r2gUvwSYsB3a5kPWRk1N5mj2xupJB9ITdTTtDRyDSvDP0kmy/DRbNdZRi2pwHar9yNEtVvdZZP5x2HD5wdOP8Z1mO4FLAAim+CKBgDYb/UGS4v23e6y9bexDGC/8RgH+cJT8QQ7IYBl5Wg7Chd9NN/NXGc/Tq7J70a7yoLfJ+/N9jEhjvtu8t78fZ/35qdN1F9L/uKlGlYu5stUIaP+rts5XrItfW1jG9pmaUptA/77ddTaQYaM2rsPYJ/u04EcelwhvQ9S/tE77StR4rhVzlv03TaQD0hequHGigpgG62ukaEpn4syXlsRn52/6/7sTF/zSmaUoko7TF2J81ZFlddW5RxXOW5Htfd87d0m4k+bcLuuo6MgQ1kGEO7gSX7XKEr0d0Yznf5O+X7JqN9vE25fGhkDq2OhBtc3oCKEpSuQJA2mU7S+KvklpGCusSTp8NDn146CNKI1N0Ycuz3bp8VYKf9My0r+4+gcloYkLjoKog0HPJqZL+YpW14pnzVwUcmPIL2CxRls35EUJq8ovs6NHxdtHVWE1h8h3ps9Hf/kvfnHgvdmQdrp2rv961zKiwDmB7kA5BMvX2okw9vsCXaeF78uQIbyCno6pyh13NEMP26185auR/F+nxmNfhHgzmYIYBlKdrQq2Tetc1FO0mnvmg6YTAPsOkfV2mHahp+3Kqq9tvLnuNpx2wreG2O/5+dK2f7OiKbU35mXfgmNj4HVcVFz0YxbYjhcDeFZFnRlmncDJ6Jj54UDbV2H97zc+pB5k6brzj+6p8pN0Ws3klE3C0raiV5POtH5DvOMnIuabkPNTgf8elNMldLH6WYeY1XOMY2G/R2aYQys5kywKaYZFJPFcHhTzOG1VSD0bmcWRyZDxWr33OSjGiU5NJGPRsmh9cHtC/Fr+YR+GZveGqtDFj3Gdghg+VQyPbC/3c1v85tyvsXB0Bed/NJXNLo603pHWjqS0Zjsuoz84/3pvzcD30IIQF3JrvmIEV+ZwFyYKoqm+7V/4S8Y2TkyFc9bsv5GPZ39qVqFsdJCnLs30+jnYtB1NoIkiUU6HTD4vdeTtKJyO8ycQW1W8bWVPscVjzv30rVDSyi4lfAIhvV38ib33T0Rffslo36/Tbp9aVQMrGaUrCTTCTbTznWEwNSgZzLVtEUOTNNBEGXfhukdwUPsZCbcnlsSSSrWzABdxY+VzAuLAphrooOSnU5YqX0T55bSxaZFqXBPksy6q+gxHq19hv3cdMIF5QwAYHvz82Td1R52zZtoeM/aZfIWltIkGMPWaqVzyRvoWfc7o8RNNEM0ft//2jn3sliwvnY/QNS3k3c4ll8+1/6yj752YH5xWNPP0vUiHvSulNMRgvtJUosZ+9W/ynlL19Tc+s8P0Gon5mjCHTBiVuVclLnOqpOh/0RNpgOKaYDqT3oTIVRph1lSps2qvLYq57jKcUc16XTrI+sbSGR10pz3HX2q0N9JzcZ39/B+iTDi91up9qXDwMBqVtXEomF4FhRJgiQpotOvFk/K3fYs6IrSNeKhWCEAA9n3rVx/kPyyo0NRekdJ+n2WTVTm/hLttV2e3t427n2hPD3TDooOLwRg+Oi6MXrF9kUmGAstPfmb8eo7tTVWmXtDbUgfQSyr+2jwfaEq2NavdY6vfCRGq4zreKurfS+KbITeZ/hYuoQN6ZoIqtSzmULd0mBs3/oo+Zv+9RXJS4oyKo2pMCugNHanJF13EW7qnelBuaQJ8hsiOUO4pUNZn3wdyhCdTMD7RGk/r/KJBe95vuT01N5Ns5xl2ypJX31aLPSfJVXOm2hfD/q60lM2f3+qUc5Fmessew+n9lqezHVflMhDfuMWDITY8TfhwcCtgiChSjtUMkJ9qyjTZlVeW5VzXOW4o5lCuvURRX6jTyCREfloJD9uhgOyDpft76Qm/d09Sh+mVL8kMcr3W6n2pUPBwGpm1eC2bBjtfr4Kw/bRaopMMl3kOh74Ri4mUJPUnvkFlzLqTZFevX8IcYyoSbv1fHpVaN9UzUWrp51POPUslu3ruOrmk19cwFutd7DcbqukXFNkECxUew9Xfa1cIozaDfEDgXWn75fvTHnNReuKAfV0fkeWjPr7ItVymSaYBvmNJlorRub5VZG2+op9iHWqwd3wYV/MPmNSj/fzn2ezoPx5EwGKkL8W8venGulclLrORiFGEr0tb8CIYfl2mCml2qz8a6tyjqscdzSzkm49gt8IAdXGjeKLR5B1rCZfympBEgmgan8nMWvf3X37JYnK328l25cOxQ+ePn365/zGrDNnxK/IRLMucjQoVgjDjwt/BaLxHDg38bH1DMv+w+7RqaMSmJB0T6SxLbgfCdFsETeOtZ4b8DfcTCr5ZN99BdYWYFwZfrNVmlU8x0VO8nfzyK+9wvfbyM9BU8ERKyKaTzUXvgGE1tqABctEsyJJJQ8gvyw9evEEO1sAoGLp5a5dNFd4jntEDtassO+0N+qj7Pcb23fmMLCiMQUwM3OWBz+yUyCIxldzfRgIYSnm5O5jQjQV57B0GgA8WOuddVPSZQlKko5bXXmA+sxkPKTqeI67RAFMxUKo2v2nvVFfQ7/f2L4ziYEVEc2xGtzYF2vlBs+WIDpimfU0ubU36mkD9pXW4d1Pi6aE57iLDEA14I+aiOnEG/L9xvadSVxjRURERERENCaOWBEREREREY2JgRUREREREdGYGFgRERERERGNiYEVnXiRo4m7pZsnO2fhLLTDtOowreN2BDC1flkvB+0jIiKi44KB1RzYdW5iQ7oE1/wcB/mdPfaw69yDK13CRubxiL26PpI7lgMIvc0T3Pk9pHYITEiShOL4Zlp1mNZxUxEcTYcXArlb16S7gdCDztsNEBERHWsMrGbeY+xYzwAA+94/Y7eo45axa15Dw2piP7+D+pChr6oAANVYwazfCSJyNGhT6aDPQjtMqw7ljztK+wamAitUYbdc1Ipy3so1uC0bKjzoxRElERERHQMMrGbeBSzZZwEAi8ZPcb6o45aKPsdvPPHPRfs6rsYPsZ483hrUmzzh5HoTcRyjOQc32HuyE0KMvUzeLLTDtOpQ9riV2zcwoXuAaj9AfdB7U67jga0Cnt5ntI6IiIjmHQOrOXC+/iHW44cw3TexkN+Z9eTbZKTqLJb1C4PLEtGYIji3PUC18WBgVCXI9VswAHi3ncIZg0RERDTfGFjNquBe1xop8biH3Xy5KUoX/Pf8wp6sk9GcfPcwQuCY0CQJUvLQTAdBvhhQUFaDZgYFHc4AZvu5IjimqFN67N7yZYnjpseSJAlSzwsVRDtocKJcnTUT+SbolAWiUmVLtG/yf0mSoHsA4EHP1b33XJRVvh2E/HkrcY61zLHFC8gZoQ6Z66D7IdpeKHncUds3uAMrBNRVveRd72u4YatAaOFOQTWyxOvTeq8NIiIimlkMrOZd9HknUYXeTDY+w1dKJiDTyiS9GF9gKtAtr2sqVehZ0At6kb1lQ4SeDkXrEyzt+DAlBZaX+QvPgnJoPc8QjbVcnUMPllK8HqexJkHpKZvt9M+n3vPW7xxHnbKV5tYNE8HRFOiZ6+CoBJseABWrermwCgBkfRUqAG8z315ZATa9EEDI0S0iIqI5wsBqVtXea6+PupqssZptATY9AIaNVhwjTh4t34axlC8q1qXA8DNlW/CN/r/mh54FDypsvyXKt3wYADBylrca3PZzJ8caIgwBtV3nFnxRAfT2kcPesrYqgjN/hG5yzW23p3hOA36mjeM4RrPEVLRiVdqhyjm+I86xasNvZcsWPUOFOiSjRFAzdUivBRjw42ZmrVPJ447UvhFa2wDUVVSIqwBZx6oKYLs1IGCqYcVQAagwbpUdDSMiIqKjxsBq3slvwkyTVPhasvEsXm91ElesN4eszZokrwE/My9MrtXh1rsTBohf+g34bi3TaZRRc5M1KL2RSqfTnKZdk2tY6dtTnhLDR7NdZxm1pALbrd4usmq3ussm62vChj+gQz0nhp7jZO0RDPjNelemvHGDhKi1DQAwbtU7x5KTKXbYRsGpmJIn2AkBLCsVX5MMZRlAuIMn+V0ZNbeJOG7CLUwzSERERLOIgRVNSA2ub0BFCEtXxPoQp2jtTfJLf8E6FknS4aHPr/kFabJrbow4dnu2T4uxUv6ZlpV8h/gclkTG7zlW9hwn1CWcy28bk6wsAwC8zcwUuSjAHSsEsIyeZiciIiI6JAysaHJqLppxS0wNU0N4lgVdkaAd2joomrpS5zgZzZmG2g3YKgDPgpIG5EoSkBcE30RERESHhYEVVRZsiulYxWQxNawZI45bsFUg9G5nkjYkU6Gya2Tyj2ZmmtdxEflolJw6Nrh9cchT3ooMO8fJ6FzBdDcxDXQMaSY+NTv8p8KwW4iH3KOqvDLtm7zGotHVgdK1WZMfzSMiIqKjxcCK+uqddiXSXBdmZIscmKaDIMp2M2XoqyJpw06mh31uSSSpWDMDdBU/VjIvLApgrlkIc9MJK7Vv4pyIWNDwi1LT53XS009k1LD0OU6CZ3i4nUZbUQBHS9OZjy5dn3frwQO02kkxmnB7kkuMpnz7pmulGqiUj6RkgM1060RERPOHgdWMOnButtOlf2w9S7Y20TjMFOq1lSTzXjrtKklz3TVa0LHtWdAVpWvdlGKFAAxklyfJ9QfJKIcORcmvsyq4r9M0ZO5d1F7b5emD71tUgadn2kHR4YUi+UXXoErF9kUmGAstvTMVrl99Ix+NJEgL+2VPrNgOZc9x7YYNFUBoJWUVXYw0GQZ6Xl2FOojAx4OuKD3XjqaZ3eu9Khw3VaV9RfKSapkeI7/RE2D3Yrp1IiKiecTAigaowW3ZMNo9YRWG7aPVFBnuush1PPCNXEygJinH8wkmZNSbIr16Tyf7OFKTduuZqlahfVM1F62edu5D1rGaHFydxPqjKudYrqPp252yqgrDb6F5I5+XvRo5ya4IccguYehB73NfsdKqtG+y3iu07pR8zgh+IwRUGzcGngymWyciIppHP3j69Omf8xuzzpw5k99ERH1EjgbFCmH4cffoFE2AuDmwFRrwW25XGncx7VGB5eFw2z4wIemeSK8/ZDoirw0iIqLjjSNWRDQnOtkG8ykjougJdjwAULF0mFkhai58AwittUzyjgKRgzUr7J0OSkRERMcGAys6BgKYmfUwgx9jThWjI5TeC8yDlV/nlaRcV+0HGDJwNHE114eBEJaSW+OVigKYioVQtQumgxIREdFxwcCKiOZEZm1ebg2Uqhqw/eHT8aajBjf2xVq5oqeXAagG/ON4GwEiIiJq4xorIiIiIiKiMXHEioiIiIiIaEwMrIiIiIiIiMbEwIqIiIiIiGhMDKyIZsCBcxMb0iW45uP8riMQwNRObvbEyNEgSRI08zi1wMk+p0RERIeBgRXRkdvDbuMZAGDf28JufvehiuBoOrwQyN0q6oSI4DfEzbJCb/P4BCIRgNCDztsNEBERTQ0DK5oLB8HneKTdxMZMjOhM2imcXz0LAFg0LuJ8fveIDpybcKV7lQK1wFRghSrslovaicwNLkNfFbncVWMFs37XqcjRoJUJluQa3JYNFR70YzUSR0RENDsYWNEc2MPu7c+wHYpRneNoof4h1uOHMN0L+V0jO9h5hv38xkECE7p3NDfZnSVyvYk4jtGcg5v5PtkJIcbXSpDreGCrgKeDsRUREdHkMbAiIjEF8LYHqDYenOSo6piT67dgAPBuOydzpicREdEUMbCiyQjuYUO6hA3tcxxgD7umSMYgEjJ8joN8eexh17kHNymTltvN9PbShA4b0jV8lf4s733ULr8hXYLr7LXL75rJdq37+drbs9MIK9Q3/XvX2cNBkK3zTTzKPH91j/Eo81p66pgh2uImmlGu3bR7aGZ7yOnrki6h4QFAE43cc2TbrPN3d2CFgLqqo19YlSZ16BntCEyR7MHJd9UjBI4JTZIgJQ/NdBDkiwEFZTVoZlDQ+Q9gtp8rgmOKOqXH7i1fljhueixJkiD1vFBBtIMGJ8rVWTORb4JOWSAqVbZE+yb/lyQJugcAHvRc3XvPRaqGG7YKhBbu5J+HiIiIxsLAiiYr/Bb/3byGhteZtrfvfYaPuwKGPTS1a2hYza6pavveZ2go1dYEja1UfZPt1jV8rGfr/Azb1jU8OrQO6jNsr+XaLWziqwm0WbDpAVCxqvcLq6oLTAW65XVNVQs9C3pBj763bIjQ06FofYKlHR+mpMDyMn/hWVB6opJpCdFYy9U59GApxeudGmsSlJ6yIuA6bLK+ChWAt1lUUyIiIhoVAyuasCa2PWDZv4v1+CGu2iIpAzLZ7g6cXyQjUGfxelJuvXUdy8nfN5KgJl13tB7fxesinwBgXE+2iYdZP5XsGNXw+nZR38Fq6yHW47S+wPZmbxBWzgW81X4tneMNsh8Ci8Z1XE3aZdUAgCZ20j5y7b1224h9GlYz7VXcZhFa2wDUVUwurgqw6QEwbLTiGHHyaPk2jKV8UbG2C4afKduCb/QfWQk9Cx5U2H5LlG/5MABg5Ex+Nbjt506ONUQYAmq7zi34ogLojVfC3rK2KoIzf4TIqua221M8pwE/08ZxHKM5aDqnrGNVBbDdKg5aiYiIaCQMrGjiFu27eKsmOu8Lyplk67c4iNCVWnzR/jm0pBzkC/ibNKjZ3iuYOjg9g+ubpWG1+SbOywBwAUtlet+TZlyH6V7AAiCyCa5oAID9VsH0vtKeYCcEsKz0nQY4Mq8BPzP3T67V4da7k0KI0TIDvlvLPL+MmpusB+qNVJJgool6mrpQrmHlsM+H4aPZrrOMWlKB7VbPhQPVbnWXTdY6hQ3/CIIbGcoygHAHT/K7iIiIaGQMrGjCzmJZz4yItEdQPoQmA8AfsZ/Mh9q3rnWt/fnYSqbjhd8eYmA1rL4Z6pkkoDk6yyuTyxo4XTW4vgEVISxdgSRpMJ2i9VXJaFnBOiFJ0uGhz8hKQSr0mhsjjt2e7dNirJR/pmUlfzGdw1I6CktERETHAgMrIpqOmotm3BLT/9QQnmVBVyRoh7YOioiIiOjwMLCiQ/YKFpNf6hftZH1Vz+O9id0kF3iMHS+/7SQpmtKYl4yeFI0MlRBsbuc3Zchi+l9TrC2yVSD0bmeSNiTT0tTutVhdj2Z98lMUj1rko1Fy+uXg9gWAbRTMPhwgXVO3hHP5XURERDQyBlZ0yE7h/KpYS7Vv/QKPgjJrg05hIc3s4G11pWTPWlhK1miFSTARPUZT+wjDuqXHlWiPZ9j2Hw+ZWpmuuWlgUC4FWREnwdtMM/VFCEwNeiYzX1vkwDQdBFH2gDL0VZG0YSezuOfckkhSsWYG6Cp+rGReWBTAXLMQ5qYTVmrfxLmlNAlGUWr6PioEdURERFQeAys6dAv1t7GsQnT69e51Vv3us5QmaQCaaCjFZRf0n2IxW0b5CF+FwKKaBFyzJnPPqQ0pCQAz9+kqaocq0kQc+9ZH+HhI+4rEC0Oy1NVWksx7FhRJgiQpotOvFi8W2vYs6IrStW5KsUIABrLLk+T6g2QkS4ei5NdZFdzXaRoy94Zqr+3y9BL3hSrH0zPtoOjwQpH8ws0u06rYvsgEY6GlJ38zvL6R3+gJ6oiIiGh8DKzoCFzAW827WDXOJoFQCbX3cNXW2tMIC8lv4m1fyxzzLJbtuzBvpZn+Tpjae7jqD2mzVO2GCG6sOwPSldfgtmwY7eOpMGwfrabIcNdFruOBb+RiAjVJOZ5PMCGj3hTp1ctUde6pSbt1RVWo1r6pmotWTzsPEsFvhIBq40b+6YmIiGgsP3j69Omf8xuzzpw5oZ1SopMmMCHpnkgNPug+SFRa5GhQrBCGH3ePTh2RWasPERHRccIRKyISai58AwittUxyCTo2IgdrVtg7BZGIiIgmgoEVEbXVXB8GQliKWXDPqXkRwMyt0+r/MAdMfTxGogCmYiFU7YIpiERERDQJDKyIKKMGN/bFOh/OBjw+ZACqAf84pq4nIiKaEVxjRURERERENCaOWBEREREREY2JgRUREREREdGYGFgRERERERGNiYEVERERERHRmJi84jiIPoerfIb9ro0aVuP3cL5rGxERERERTQNHrIiIiIiIiMbEwOo4kN+EGT/EevwQV+2z+b1ERERERDRlDKyIiIiIiIjGxMBqpu1h17kHV7qEjeThmp9jN8qXq2oPu+bNruNuaPewG+3lC45Uh8DUIEkazCC/h4iIiIjoeGJgNbP20NSuoWE1u5JS7HufoaHcw25mWzWP8Ui6hob3rDvZRdhEQ3mUO+4odQiw6YUAQni3HQyIv4iIiIiIjg0GVjPqwPkFvgoB4Cxe9+9iPX6I9dZ1LAMAmmiYj/N/Uk6whW0AwFks+2Jd1nr8EFdb17GsdmeAHK0ONawYKgAVxi0dcn43EREREdExxMBqJu1ht/EMALBo/xxa7ZTYLF/A36TJKbb3cJD5i+qeYft2Z0rfgnwBbzXfzKRnH70ONbeJOG7CrTGsIiIiIqKTgfexmkmP8Uj6KBlZ6qf4PlUHzk18bD3ruz+d3idGojoWjXfwtzfexPl2LDR6HYiIiIiIThqOWJ04p6A17+Kq/w6W1c5WsW7qJh4x4QQRERERUWUcsZpJnVGlRfsuzHoyDa+E4SNWeXs4cB7hY6sp/mtcx7p7Yaw6EBERERGdNByxmkmncH5VrGPat36BR0FRGvTRHDj34JqPcdBO13cKC/oZLHYXG6sOTLdORERERCcNR6xm1mM80j7Cdm4tVCo7itQZpepDfQdXm29iYWjZs3i99SG07DqrknXoCGBKOjwAUG20mnVmBiQiIiKiY48jVjPrAt5q3sWqcbZgNGl0C/WfY9XWsJhZXwWcxaLxDla7giqMWAemWyciIiKik4cjVkRERERERGPiiBUREREREdGYGFgRERERERGNiYEVERERERHRmBhYERERERERjYmBFRERERER0ZgYWBHNgq9NaB9IkD7Q4LzI7xwmgnNfg3RZgnY/QPvez0RERER0aJhunejIBTAvJzdVBsQ9wK404b7WVaiPCM4HCqznnS3qSgvNN3gHMSIiIqLDxBErmhsHzk1sSJfgmo/zu45AAFMzEeQ3j+JFC9tdG0J4n2gwv+7aWKA3qKLyoi87o3xHZRbqQER0XMzbZ+q81fd4mmB/joEVzY897DaeAQD2vS3s5ncfqgiOpsMLgaJ5d8F9CdJlCVLyQZn/f4+X6rh1Mb9xWHDVL6hSsfrjkzZaFcC8nLRx+ujX1m0R/N+FAIBwa7PaB+rXJqTL0oBzU9YYdaABRrkeiGj+zdtn6rzVd37k+135/3eJAIQedGkywRUDK5oTp3B+9SwAYNG4iPP53SM6cG7Cle5VCtQCU4EVqrBbLmoFMcy5l9X8JgCA+vK5/Ka22rst+KWDq/5Blb3RRP2l/PaKksCh36O3PvNIhv4TcZ7Uiyuo5XcfilmoQ3nRlxq0y5P54qkq/VW3+6FBu+8gqLwmkSbhKK8HOjmqXWfz9Zk6rfpWa7PjqVI/TK7BbdlQ4UE3x281BlY0NxbqH2I9fgjTvZDfNbKDnWfYz28cJDChe4BqP0C9IKjKSt/A/d7g3eSSwdWUg6q5VIP7aYz40xjxpz6M/O4+5DeaiD+N0Xx3Ul9n1c1CHcp68l0I8dvqrAgRblnQ1/MJX0a7Hqia2bse6Diqep3N02cqplTfqm12nJXuh8l1PLBVwNMxbmzFwIqotAjObQ9QbTwYFlWNZFhwFRxOUPWam3RKY8RXRLfUuJJ2VOOSSTWIJi97HcYbLfgXVQAhrF86RbNyiYiISpHrt2AA8G6P933CwIomQiSWuIlmBBw49+BKl7AhXcKGdg/Nniv0MR5Jl+A6ewD20DRFUgqRmOJzHBSUTfdvSJew0Sd5RacOe9gdVIfgXvtYDQ8AmmjknkPULSe4AysE1FUdg8Iq+eXlwv8vvzzor1KDgit9+kFVRWKKlgbnRYTgSxNaOk3rA7N7FOGFI/Z9UPyBJeY/50YeXgRw7mudY16WoH1gjjn1q+r6m+R1fZAp/0knf+NoytehdPt2lQWiUmULpnUm00C1L5OzlJkWqm8BgAc9V/d22cP2kozau+KLEM938CS/v7Rc217W+t+2oNI1mT+uNGDqYr7sgDpUUu64pa+zka6HcnVI3xfi7zu3kEjbrbd8BZXOWzml26wtQlCiDtWPW07145Y9b2i/tux10HmM8Lle+Tor+Zk6yvdQpXYoq2R9q5y3ym2Giq+twjkufdzpvedH64fVcMNWgdDCneLTUQoDK5qo7bVL+NhqdqbXhU18pYiAq8fOYzySruErTySlAIB97zN83CdwKucZtteuodFTh2rrqIoEm55IDqEPemN2RnzaKc+T/5cf6ekXXOUdbVDVEaLxSwX6pteZfvDcg7WemeP9ko7V0wCeN+D3fIkH2NwCcHoVevu1RHB+qcPa6p7SED73oGePO1URgvvJ6+oJaA9TifbNaPxSgtJTNv/FR6n2OW5vCRFu6VB6Ol/Vrsne40JMXfTzJYvK9qtDNdWOW+06K6taHQB858O8rMDayvzFlgWlT8dzuGrnrZqybSamcOuFdSh6b5Y9blXlj1v+vHVe23DTPBclVP4eqtIO01T+vFVR/rVVOcdVjpuY+Ht+9H6YrK9CBeBtjv7cDKxogp5hPwQWjeu4Gj/EenwXq/ZZEez4vSNA+95n2MZZvO7fxXr8EOut61gGgK6sfxfwVvxQ7I+T/UP01MEAgCZ20vdJ7b3keA+TfRpW288hHmb9VNcxgQitbQDqKobFVZMxLLialaBKCJ8D6kUfrU9jxJ+m9faw2R4RkVH/O0N8Qfw+99H69SY8AMbf1btHAl8xYF9pdaZ+FR63qgrrb76+I375O23D3+hMQWsl0yNHV6EOieHt2y7ZW3ZFTJfrafcyMtNCxXMa8Nt1F48ju2faiwjO/eT+b6Mu/P7aFOe43V5p+6rAcwt38u1b+ppMOmkX7cxxY7Su2DBezpYboQ5ljXDcnmsn/9qqXg+j1GHLgge1084byXtknKxppc9bdUPbDED05ZqYbdD1WZKZyloQbJc57ihKHbfKefv6Tvu1tcum5wwG/E9z31NlzkXV66z0Z2rF76Eq7VBJ2fp2DD1vVdusymurco6rHDcxlff8qGQdqyqA7VZxEFgCAyuaqEX7Lkz3AhYAkcmv/jaWAew3Huem+CEJaD6EVkuCGPkClsp8wgxjXO+uw4oGANhv9QZ35T3BTghgWRk4DXDSWn/Mb+nY+S6/5Qhd9NF8t5a0jYzaj8WJ3P4u89H02goMAOHv/K4PrOD3HgADK12/JMmov+ui/lq2tTvHnb4IzheiXv77ddQyHYPDPP9tZdo3oa60usu+IabL5dt9HnmfZKafrCuwtgCcNuCPuPA7vfb8dnsh+VEjmWv/++zX+gjX5FYD/tedVpdfq8N9o7uu1epQ3kjHrXCdlTFSHdKOWtrOL9Ww0vcHpjJGOG9VDG2zNKV2/rNERu3dB7BP9+lADj2uUJwxs2jaV6LEcauct+g7cRfGroDkpRpurKgAttHqGhma8rkoo8L3UJV2mLoS562KKq+tyjmuctyOSb/nxyFDWQYQjj69nIEVTdSikh/peQWL/ZKxFKRNP+8+xHr8Xs/2KpZXJpc18Oj0y/6XymcLPFrGj8t0bJMPy65pGOkv+wUjDi8CmB/kOg1jr2+q6PQSCpKzHrpy7Sv0ziE/h6XTuU3HwWkVxoqP1vtu77VTSpT8cNG7FkG6nIyE/TH3q2Xpa7IG94oBFSGsTxRIlzWYXxatrxqhDqWMdtwq19lwo9Wh6LOg9m6M+NNRz3OV81bd8DZ7gp3nxa8LkKG8gp7OKUoddzTDj1vtvKVrV7zfZ6Z5vQhwZzMEsAwlP6tiiueinLLfQ9XaYdqGn7cqqr228ue42nHbCt4bY7/njxADK6KZMyyoSs1WcFVGTbehZqdhfL0ppgDouY/PFw60dR3e83Jzuicv6QzRTOnKCvh+E+4b2V9Fp6zqNfmai+anLTH973QIb9OCvi5BG2fdAFVX9bzNmTRdd/5xaFN0X7uRjLpZUNJO9HqfKbozci5Kfw+RUOUcEwMrmrLoMbZDAMunkql5s+hbHPT8hJJ3Dktjzrstp19QpcLeSOdVZ81ZcJUsHk6nYQS/93oWCwNA4FsIAagr2XnanfTv05eM8hRkmxNTHebICx+N5wBeGT6NNfi9mPLRX+8v6/MrGS3IrhvIP97vTH0Z7ZqUxfS/92PEn7ZgnwbCrduZZAXV6lDetI6bN+h6OKw6DDbaeZuCoul+7V/4C0Z2jkzF85asv1FPZ6emqDBWWohzU3RHPxeDrrMRlPoeqtgOM2dQm1V8baXPccXjzqR0Pf3os1UYWNGEZdYxRY/xaO0z7M/w9LyFpTS5RtEasKx03m0D/tQiq0FBVRP1l/oltJin4Cq50/zzBvwXYvqF+pP+6euXXz7X3hd97cD84rCCmnSKjofb6VqFFwGcD9JUtrMsc4G+CGD+UnRmslNJeqd2iFS6g7I+iRsshmj8vihtbl4nde4sj9Cce1ksqF67HyDq2wnpVuqafOHAvO8geJFtqeTaR9i1PnKUOpQxreOmylwP065DFaXO21Sk60U86F0ppyME95OkFjP2q3+V85auqbn1nx+g1U7M0YQ7YMSsyrkoc51VV+57qEo7zJIybVbltVU5x1WOO5opf7dEPhpjrqdnYEUTta1f69wPSvlIjFYZ1/HWqN8amXtObUgfYRsAvI8G32+qggXlDABg3/oIHw+5j1VtxRAfVlOJrIYFVen/DyG4ytwPI537nk0aMO5zyG/cgoEQO/4mPBi41e/DGYD3idJ+XuUTC15P++Tqm87j3tLb27oWcVcoK6aLAOFmUod1cR8x9aKBfssGS6lQh1Fk20xa10WbXfS708wmC7g7UzuSVLpdv0h2S4OxcFPvTAfpV98XPhpJkBYW/lI/RRXaV35DJA8It3Qo653XlD6y13qlaxLA9pYFfT1zLi5LUDZD5BfIV6lDFdM6bqrM9TDtOpRR9bxNQ+3dNMtZtq3S99zoyVempcp5E+3rQV9Xesrm7081yrkoc51Vec+nynwPVWmHSkaobxVl2qzKa6tyjqscdyRT/m6J/Ib4IXJl9PckAyuaHvUslu3ruOrO5mgVIFKvX/W1/gk2smo3IO4dd2fCb+ayQVVqcHDVe0+UWSN+wfW2vL6/1MpvNNFayQYwqkg1e0UEO4fipTqaV2yoaeKH0yqMKy009aVcwRmWJnjo6bjV4G7YMNpJLdJEEMkNd4u85qJ1xei0xyAv6Vi9KM6U2ucczwYZ9fdFKuBh11Wla/KlOh70tFVSvmdBdvk6VDOt4yZKXQ9TrkMJlc7b1NTgbviwk/eEkNRj5OQr01T+vIkARchfC/n7U410LkpdZ6MY/j1UpR1mSqk2K//aqpzjKscdyVS/WyL4jRBQbdwY48A/ePr06Z/zG7POnBG/6BMNcuDcxMfWMyz7D0cfnZoHgQlJ96DaLTTrvb9wjeSFA21dTNfq6BdUZSU3sM1NTVNXWoe3cJlmRvSlBmUzhHFl+E0QiYjGl/4oaMDfcLtuSyGmbIlbIvAzaZ6dnHMcORoUK4Thx3DH6MdyxIqoipoL3wBCaw3OeKP1HS8puRsflwmqMGDkioiIaNo62VPzaZ2iF0+wswUAKpbyN8WmOXJCznHkYM0KAcMfK6gCAyui6mquDwMhLMVEMJHgSkwTMU6rUE8b8EsFVakkuFpRoZ4WWXo4WkVERNOX3iPPg5VfT5ik41ZXHlT4PqPZcwLOcRTAVCyEqo3WuFEVAyuiUdTgxj4MFRg5bUzeSzW47zfRfD8/1F6GjNobTTTfL87SQ0RENHmZ9TS5tTfqaQP2Ff7QN/9OwDmWAagG/OZkUsFzjRUREREREdGYOGJFREREREQ0JgZWREREREREY2JgRURERERENCYGVkRERERERGNiYEVERERERDQmBlZERERERERjYmBFREREREQ0JgZWREREREREY2JgRURERERENCYGVkRERERERGNiYEVERERERDQmBlZERERERERjYmBFREREREQ0JgZWREREREREY2JgRURERERENCYGVkRERERERGNiYEVERERERDQmBlZERERERERjYmBFREREREQ0JgZWREREREREY2JgRURERERENCYGVkRERERERGNiYEVERERERDQmBlZERERERERjYmBFREREREQ0JgZWREREREREY2JgRTRnoi81SJclaPeD/C4iIiIiOiITCax2nZvYkC7BNT/HQX5njz3sOvfgSpewkXk8Yh+RJiC4L0G6LEFKgo78/+dfBP93IQAg3NrELL+qfNvn/09ERER0nEwgsHqMHesZAGDf+2fsRvn93XbNa2hYTezndxBNwLmX1fwmAID68rn8pjklQ/+JeI3qxRXU8rtnyPE/F0REREQdEwisLmDJPgsAWDR+ivNyfn9G9Dl+44l/LtrXcTV+iPXk8dYs9xBp7qSd936d+3kmv9FE/GmM5rvz8aY5zueCiIiIKDWBwAo4X/8Q6/FDmO6bWMjvzHrybTJSdRbL+oXBZYmIiIiIiObE6IFVcK9rjZR43MNuvtwcihwNkqTBiSIEjglNkiBJEiTNhFM01TEK4Jhap5wkQdNMBNmykQNNkmAGQGBqyfEcRIjgJP/XzPzak9zzSxo0M0BRFUiQX14u/P/yy4OGUifkhQPtsgTzayC4LxJMSB8k5zj5f0/CiRcBnPsatMvJ+qPLErQPTAQvuosBAcxMmUFrlURyCw3OiwjBl2bn2B+YcHqOOz2jnAvx3tDQ81YgIiIimnE/ePr06Z/zG7POnDmT3yQE97ChN3MbNazG7+F8dlP0OVzls8FrqtR3cLU5ZLTrEEWOBsUKoapAKPIEZBjwYzeztiWCoymwesqhu2zkQFMsQFURtg+qwjAAz+v83241UU/6nYEpQU+mTnZRbbSadfTvntKReOFAW7eA0yrC55lzfBHwtjLneKOJ+ksQ184HCqznnUN0GPA/zV5nAczLOrouh4s+4oLpgNGXGpTNEOppIOw5dv64sySAKSWvkdc4ERERzZnRR6xq77XXR11N1lgdN2EIqIaPVhwjjlvwDQDwsJn/NX3ZgO23EMdx8uhfNgxDqHYLsW8ACOF5IQw/RstWAYTYeZIUDEwRVLWfPz2uCoQW7uTrcMQCszNaV/jQnPZIW5Wy8yh8HkJdaSG+kpzjrRDGlRitleQcf5cp/IoB+0oL8adx8mjBvwhx7XydKYca3HYZH0Z2Vx/hc0C96KM18LizpIYVQxXB6C2dQRURERHNldEDq7LkN2GmSSp8Ldl4Fq+3Ookr1mdotKqL4aPp1pIOnozaiujObrey3X4ZdddFvZbtBnbK9lBtPEiHpJL/36gBstI9bSrY9MToQvv5IY7r3oIBwMtHbDQ7Ttt48EbmHJ+2ceO13qlxgIz6uy7qr+WunR/3uXaquuij+W7m+k2Ou/3d7IatNbeJOG7C7Xo/EREREc2+6QdWc8xYKTlhKgpgasm6qfRROIcPUFe7f4nP/1+I0NoGAA96fjQnnSq13ZqpUZ2am46q9XlkpnVVKTuP1J/kznHu/11eBDA/SNZjpY9Piq+dqowfl7x+iYiIiGhsDKzGFTnQFB1e72IsosFeONDWdXjt9VhERERENK8YWI0puGMhBKDa2bVQcbKGalQylOVkAX9+NGdGR3WqrJuqUvY4C/zk2llJ10EljyvjXDtEREREdBQYWE3IsnKuHehEgQPz9njTuc4tiSQVa2aA6CREGSfY8suZa+drB+YX410784zp1omIiGhejRxYHTg32/ev+th6lmxtopHe00r7HAe5vzmOzi2pAABPV9ojLopuoZ1BfURy/QFsFQg9HYrSO6ozax3PKuumqpQ9zs69nFw7nyjt9VXKJxa8nhTpAL42M+uwknV2W3rn3ldfHofoO8CmF4pMirdPxqglERERHR8jB1YkyPUmWrYB0UUGAFWkaPftzLZRyKg3RXr18Y5Ds0p+o4nWSu7aueijdWXca2deMd06ERERza/RbxBMREREREREAEesiIiIiIiIxjenI1YBzPR+ThNlwI9dzM/df9gO1QUw0zVKE2XA/3Se2oztQERERDRJHLEiIiIiIiIa05yOWBEREREREc0OjlgRERERERGNiYEVERERERHRmBhYERERERERjYmBFR1LkaNBkiRoZpDfRUcmgKmZKD4jg/YRERERzT4GVjTjApiSBCn7GBosRfAbIQAg9DarddYDE5IkYehTzLA0qJyt1xDB0XR4IYAovy/ZFnrQJQZXRERENJ8YWJ1QkaNBO7adWBn6qgoAUI0V3lNpBgSmAitUYbdc1OT8XgByDW7LhgoP+mxFhERERESlMLA6oZ7shBBjOrOuBjeOEccx4tiHkd/dh1xvIo5jNF2GVUcuMKF7gGo/QL0oqErJdTywVcDTZ2y0jYiIiGg4BlZENEURnNseoNp4MDCqEuT6LRgAvNtO4YxBIiIioll1YgIrse5EgxNFCBwTWrpeRzPhzGwPLkJgivUyvQ8tV+/c65I0aGbQ3TlN1g9JkgTdAwAPeu642iiNETniebXiznBgFtQ3CuCYWqa+EjTNRFB0gNKqrsdK2kzLlBcNM7Iq11nftVDJeWqfi6R9zQCd60FzECGCk/y/N0mHiqVzQDSkDkKJawdot6+oV+e5xfMXn3sEd2CFgLqqY3hYBQA13LBVILRwJ/+SiIiIiGbYiQmshBCNNQW65XWmwYUeLGUW1xpFcDQFulduwl5g5l4XQoSeDqVPsDNRso5VFUDYgN/zZAE2PQDqKvR2zzqCs6bD8rqnI4ahB/3QzkXUabNyTVzBdK6z7dta53oIG7hjrsFK/h96t3uCpsaaBqWnDvmAfIRrZ8eHKSnt5waA0LOg9AR3QCBOPlY7J38oWV+FCsDb7D0eERER0aw6YYEVEIaAavhoxTHiuAXfAAAPo/bhxGjMgEe/zukwyS/9UO2krjHiVrrGyIAfNzvrVZI1LGi/rvS15X75r7nJvjh53Qb8dnnxaJaYrtVLRv2WIQKKfGQVbMIDYNyqd49YLBuw/Vbmucc/F5XWYwV3RJupNvxW5/W3RCXGNunrDADCMIRqtxD7oq09L4Thx2jZKoAQO0+6Sovy2Tok5brOUdlrJyP0LHhQO+cvvS57MjBGaG3ng+oS0kB9uzXae4eIiIjoCJy4wAqGj6ZbSzr5MmoroiO93ZqtLlzU2gbyAYmcTJPCNrLVFaMCBvz264J4bW6yXmWc3nxZtRUYAMKG39UZTuu20pVDQkbddVHvSg/XORfTl6z7gQG/We/KUlel/z/QNK6z/Dol1caNGiAry9lSbard6q5Dsn4pe45Gu3aSwD5tOLmG4lP3BDshgGWlYrvKUJYBhDvoihWJiIiIZtiJC6yM7h7+2Gpu94hPz6OZG6kpKe0se5uZEa8owB0rBLAMpX3QZFSgYL2UJOnwcFi//Ced667pgMk0wKKU51EAU8utHxtzfVNl6hLO5bdNyKSvM6B3nVL+/3nLnYskcQ5LIgt9YsRrp+B8iveB27OdiIiI6KQ4cYHV3KjdgK0C8CwoaWdXSTq7BR3bWVC7YUPNTjULNsWUsRu52kYONEWHN/nFTSUlIylERERERBPCwGpM015jparZIQYVht1C3HVvpmTaVHYtVv7Rd9Sse0rh2JK1MelUs2DTK1xfE9yxIJaPZdf1xMnaocOQjNwUTDUTU+OOVrAppoFOXOSj0TU1b5xrp4yknYtGvQZK12ZNb0SRiIiIaNIYWM2odO3LrQcP0GonV2jCLUgucW5JJBpYMwNEJXuw50RkgYZflFZ7VDJ0EVnBj8Q0wEHT1ZaVc+19UeDAvH1YQU0SUMDD7XZK8wCOlqahPxy90z1Fev2ymSCHy5zZKICzJgLa7DTFUa6d8tK1UkXZIgfoCQCJiIiIZh8DqzFNa42VCHw86IoCRekeBcvf70muP4CtQqTIzpWViu6TlOnUh5bemWo46n2sMsQNXkPs3NmEBwO3+gWCADxdaT+volsojCcy995qr/vx9OL6Vigrpi0CoZXUQdHFCKFhoGsZ0jQlCT860z2T9Ppdo5Sjy7Zv+vpg+MgOeI5y7VQhknYUZIscIPIbPQEgERER0axjYDWjRIAi5PvZvfd7klFvihTZpbvkNRct3+g59vhEEgvP8/quBZPrTbTsbACjirTgvgh2DoVcR9O3O69fVWH4LTRvLOUKTlMNbsuG0X7RKgzbR6vZOfejkPVbsA21+9yqRdNIMdq1U0WyVjC07pS8h1cEvxG2Mx4SERERzYsfPH369M/5jVlnzpzJb6KpEzcHtkIDfsvtSgcORHBMBZYHGH7cNfpANJMCE5LuifTvBSOYWZGjQbHE/bl4bRMREdE84YjVTOpkrcsv+4+iJ9jxAEDFElf20zyoufANILTWMHCmaeRgzQp7pisSERERzQMGVjMpvd+QB0vJrJORJChJynXVfoAhP/6PIYCZW2vT/5GdknjcsB0mpeb6MBDCUrrXB7ZFAUzFQqjaaDGqIiIiojnEwGomZda95Ba+qKoB2x8+pYpottTgxr5YT1Z06coAVAP+iMleiIiIiI4a11gRERERERGNiSNWREREREREY2JgRURERERENCYGVkRERERERGNiYHWCRY4GSZKgmcxnd/wFMLVJZC6c1HGIiIiIjpcTG1hFgQlN606ZfbLiiwh+Q9wsK/Q2J9BRLkhNfrIadIZFcDQdXgjkbotWXQQg9KAzvTwRERFRlxMZWEWOBkX3ECY34T1skaNBO/KOqQx9VeRyV40V8M5Bx1dgKrBCFXbLRW3cXOZyDW7LhgoPOgNnIiIiorYTGFilIzUqbL+FOI7bj8O6L+mTnRBHFNN1ketNxHGM5kReeA1uuy19GPnddDQCE7o34RtKy3U8sFXA00/YKC8RERFRfycwsHqCnRCAcQv1sX++J5plEZzbHqDaeDCxqEqQ67dgAPBuO2PPLiQiIiI6Dk5gYFVSFMAxNWiZNUOaZiLo14tMynfWGGkwnUzhwGzv0z0A8KDn1iRp2fIAgAhBqTqI9U3i76OuemhmvuNbcS1U1XaYG1XaDOJcOGamHTRoZlBQLjHsekimhEpFa/uSa6X7eqhaXwDBHVghoK7q6BdWiTpocKLc69NM9FyOXWq4YatAaOFOvv5EREREJ9DJCKwiJ9Mh1iHiGr07uNCyndMIzpoOy+uesheGHnSlYG1U5EBTRPmOEJ61NqRzOkgER1OgF9ZBKz7ujg9TUrrqEXoWlJ6ee1kV22EelWyzwFSgW16mHUKEng6l67pJTOV6SJSsLwAEmx4AFat6v7AqFaKxlnt9oQdryDmW9VWoALzNQaWIiIiIToaTEViNYtnIrcFqwTcAwEN3PzKCs2YhBKAaPlrZ8vZyp1jNbR9LHMeAn1nfFccxmpnpWpGzBisEoNrwW9k6qABCWAXDBKFnwcuuHWsla526sv5VXAtVuh2mIzBzo2v5R1FgU0GpNkvWKSF/fo2iEZuS18OIStUXABChtQ1AXcXQuApAGGbrW/IcyzpWVQDbrbHOAREREdFxcDICK7mOZj6YMPyuoCZu1jPTpWTUXTe3BktGbaUgDIl8NEJxvKZb6zpGre6OmDAgTbBhwG/WM5ncZNTcB7DFMEHBaIIBP2526i3XUFTl8iq0w9wa3mZi5MeAnz+/brLOKBt9TOV6yBpeXyFZS7is9J0G2KWrvp1zvN0aFDLJUJYBhDt4kt9FREREdMKcjMBqFFEAU8uukZEgicVR3Z7sIARgrEwis14qTbBRlAY96cxiGz193oLyNTdGHLs920sr2w5TIuo/4NEVEI9gaJslIz8Fa+La00qzIzZTuR4yhtZ3NFOrLxEREdEJwcCqSLJGxitxo6tI9LqPpwrtQMKxvh6IiIiIqC8GVgWCO8kaGTu7RiZGLBaedJHF8NGQKVNFCkac8gqn+6UjKMtQxhqqGa5KO0zLtNdYDZeMEKp2dxv0GTUb/XroCDYnEZydw9LU1z+l67iWcC6/i4iIiOiEYWA1wLJyrt1hjgIH5u2CKXC1FRgAQkuB5mTTb4v01UVZ4M4tiQQUDb9fuu503YwHvSuld4TATJJaFEwJm5ZS7XCMnVsSSSrWzABR8QnrqHA9pEGYt5kGhyK9vt6VTXBU6fqnBvxhdR5Vup6s7DouIiIiomOMgVUBEfgAnq60R0YU3UJxf7cGNxnBCS0dSns0RYFuFY88pB3q7vLd9y2quWm2t9wxvRBQRSKFkWTup1WUej5bh0rtUOG4VUx9jVUJcl0kDAk9HYqSGS1LHt2ZzitcD0kQBs9KyqXnV7T7uEQCihCNKUVWkd+Y7noyIiIiojnCwKqAXG+iZRvodG9VkYratzPbMmouWr4No6tDrMKwHxRngau5aPnGkP5zDW7Lh210H1M1fLSa4yUqKKtyOxxbMupNkV691OsufT3U4LZsdE6xCsP20WqKbINjq90QAaF1p2BK6biSzJWqjRuHcTESERERzbgfPH369M/5jVlnzpzJbyKieRGYkHQPqt3quk/auCJHg2KFMPwYow6eEhERER0nHLEiOs5qLnwDCK21wvV+I4kcrFkhYPgMqoiIiIgSDKyIjjmxXi+EpZgIxg2uogCmYiFUbbQYVRERERG1MbAiOvZqcGNfrOUadzagDJE85RCShhARERHNE66xIiIiIiIiGhMDK5q8Fw7MX1rwnud3VKFCvXgLD96tcWSEiIiIiGYeAyuarK9NSJ9M8AbCp2203ue0MyIiIiKabQysaIIiOB8osJ4DuOijpZ/LFyjvOx9rn1jiBrRXYriv5QsQEREREc0OJq+YoAPnJjakS3DNx/ldRyCAqZlTuDHsAC98NJ4DgAH/3Rrkl+TRH6/V8WBF3DnX+/2hvopjL/pSg3RZgnaf7Xpc8Rwff8fzHB/B9xYR0QQxsJqYPew2ngEA9r0t7OZ3H6oIjqbDCwEMSa8dfW1C+0CCdLnzML/u7A/uJ9uTL+/8/2neRPB/FwIAwq3NCXRgApiZa2cWro1h1/Souo77gTPsrTVABKd9HA3m16Mfqdikz/HhqNK+0zrH82PS57jK+7ja9Zv/zsj/v0sEIPSgSwyuiGg+MbCamFM4v3oWALBoXMT5/O4RHTg34Ur3KgVqganAClXYLRe1AYuToi81KJ94CAckmTj3shg1ylNfHmOa36Eq6DC0HxqcF/ny0xN9qUG7fNQdBhn6T8Q5VS+u4LjdiarMNT2Sr83pHPd5CO8TZcJBwRye4wrtO7VzXBLfxxklrt9K3yFyDW7LhgoPunm0LUxENAoGVhO0UP8Q6/FDmO6F/K6RHew8w35+4yCBCd0DVPsB6gOCqs4vnirsKy3En8btR9F6pvRLsN+X5ES8cKAlv2QO/g10Pj35LoT4jfloyW80EX8ao/nuJLpjNbjta8eHkd99qKpd01UEvxcJWYyV5LhjJVSRUX9f1Ku1Ilps0tNdJ3uOp698+07vHJfF9/Fo12/p7xC5jge2Cng6GFsR0bxhYHWsRHBue4Bq48HgqArAE+w8B3DxFuqvDSt7CF440NZFsgr8sZXfO76LflcnTDyaqL+UL0jza8rX9GkbN96Y7HHlN27APp3fekKVat8pn2OqZFrXr1y/BQOAd3vwlFAiollzYgIrkVjiJpoRcODcgytdwoZ0CRvaPTR7Prkf45F0Ca6zB2APTVMkpRCJKT7HQUHZdP+GdAkbfZJXdOqwh91BdQjutY/V8ACgiUbuOUTdcoI7sEJAXdX7/NpbnfzycuH/l1+e1DPkgqqjTq/+IoBzXxMjZ8lD+8BE0G/KYFI+O73Q/DJzMr822/v0LQDwoOemJGrZ8gCACEGpOohpjuLvo656aPfzHZKCKZFFaxxSVdthKsq2w9ETiQQ0OC8iBF+anTp/YB7idNOK5xi5uibXzaD2De6L1zlo6tdMqHr98n08NaN9h9Rww1aB0MKdAS+PiGjWnJjAKrW9dgkfW83O9Lqwia8UEXD12HmMR9I1fOWJpBQAsO99ho/7BE7lPMP22jU0eupQbR1VkWDTA6BiVe/zhZVOtbssQbqswwOALb37Szq/aPw1V0w3SX9JTv5fbtpNhOjrIdP6ZimoQgTnlzqsre6pPuFzD/p6wZqKFw60dVG+I4S3uTZGZ1qkrNcL69BnTdh3PszLSlc9wi0LyqAO10AV22EqSrbDKNf01IRo/FKBvul16vzcg3VobVZNcD9X1+S60f1+tQ2wuRWKa/yLw2rTUc5xxeuX7+PpGvE7RNZXoQLwNg+tpkREYzthgdUz7IfAonEdV+OHWI/vYtU+K4Idv3cEaN/7DNs4i9f9u1iPH2K9dR3LANCV9e8C3oofiv1xsn+InjoYANDETvr9UXsvOd7DZJ+G1fZziIdZP9V1TCBCaxuAuop+cdVhi75cg/KJDuWDPl/ihxlU5TtiPZ2xxCtGbu1GC/5FAPCw2fUrfQTnl6Lu6kUfrWz5lcxVkHQi4k/j5DgG/NyUxHaHI2kz67loD38jWwcVQAiroNMbblnwsmtONpI1El3ZwqqsoajSDtMxSjtMzQsHm1v5jcXC59nroUKbbd2GMyS72nBVznEgXtNFO3PtxmhdsWG8nC+bqmHlogpAhfF3kxsVr9K+pZW+fvk+noiJXL85so5VFcB2q/dzmohoRp2wwApYtO/CdC9gARCZ/OpvYxnAfuNxboofkoDmQ2i1JIiRL2Bp6DdZCcb17jqsaACA/VZvcFfeE+yEAJaV/h2el+po5r+U82uPJhjcyG+IefJ47kHPB1eHGVSVJqP+rptbuyGj9uOCk57es+uij+a7tUzdZdTecEdcu5UuzDfgv19HrX0MGbV3H4i1DIWplQ34nzY79X6phpWL+TJVVGiHqajQDlO8ptP7BEnrFrzTBuz/XOI4XddDp822v+vXNZRR/882jNMhrE8USIVTyqZoqwE/0yGWX6vDfaN/MoTau03EnzbhTmB9U+n2rXyOK1y/fB+PaZrXrwxlGUC4gyf5XUREM+rkBVZKfqTnFSz2S1JUkDb9vPsQ6/F7PdurWF6ZXNbA2VaDm/7qmg2ujiKoynfEejpjiRcBzA+yay0kSJ+IjGVdvttBCMD4cf9OaHXpwvyi9MkylFcAYBut/DSigvK1d2PEn7o920sr2w5TMWI7zIDRrgclv+EQ1OBeMaAi7RBrML8cvL5qrpS9fvk+noCjuH6JiGbTiQus6JC9lA+utMMPqspK1lp4z7MrEopF323nNx0fFdrhOEvTWbeu2FCfe4XTtyYh8HV4z1XYyZSx7JSyqXrNRfPTlpj+dzqEt2lBX5egjbymp5qptW+F65fv4/Ed2fVLRDSDGFhFj7EdAlg+lUzNm0Xf4mDo7IpzWJrV+ehdwVWykHrWgioAgZ+stVjJrrWIEV/pnTqTZrbqP8Wrn4JfqvMKpwlFaP0RAJahjDQ9qbwq7TBVR9wOKfm1Om5dFLcBqHq2h0tez8VbI047G5cspv+9HyP+tAX7NBBu3S5OrjAlk27fKtcv38fjmub1m64bXkLBrYSJiGbSCQysMuuYosd4tPYZ9md4et7CUppco2gNWFY6H70Bv2of4TBkg6sZDKqyll8+165b9LUD84uCqTOvrcAAEG4q0L7MZj4UKayLOqbixpghGr/vlykxXVPhQe+6SXKE4H6yGL5gutC0lGqHqZitdjiWXjgw7zsIXmSvRBn6T8Q1uvNdZnPG3KRbL3v98n08uyIfjXDIumEiohlz4gKrbf1a535QykditMq4jrdG/ZbL3HNqQ/oI2wDgfTT4flMVLChnAAD71kf4eMh9rGorhvjCn8nIKgmu+q1tmgGiwwR4ySJs6bIE5RML3vN8SbTXqABAuKlDaa9hUKBvFk8vSn8d7y7fvdi79m6aCSx3zK0QOG3Af3fECzVzH56ilNXZOlRqhwrHrWJq7XCcVTwX21sW9PXOOZYuS1A2QwAGVgpTYR9RuvWKKl2/fB8LFY57WCK/Ida/rYzYVkRER+DEBVZd1LNYtq/jqjubo1UAgNp7uOpr/RNsZNVuQNxT8U7BFBQaRn6jidaKgU5TqyIF8xU7sy3jNTdZn5Ldq8JYeVA8LeY1F60rBtTT+R1ZYmTPvth9TPWij9b7Yyxir6ByO0zF0bfDsfZSHQ96rsWkffsmS5hSuvUJq3z98n08gyL4jRBQbdw4jMYiIpqQHzx9+vTP+Y1ZZ86IEZN5d+DcxMfWMyz7D0cfnZoHgQlJ96DaLTTrh9z1aWf7M+D37ZyVF32piV/QL/qIR/2Fl2gCgvsS9K3JXNfdApiXdXgn/BqfXvvSdE3n+o0cDYoVwvBjuJM7LBHR1J3sEavjqObCN4DQWoNz2LM3XtKxehpibcEHYv1GNOrjaxNrmyKb1WRTIRONysPtrnU444oQfHlbTLuiKbQvTdeUrt/IwZoVAobPoIqI5g5HrI6lAKakw4MBv+WidpgDV9l7VE3ChH8JJRpJ/roeKwFLBOcDRSQxAACosDeaxdPOToqJti9N1xSv3yiAqejwVButJs8/Ec0fjlgdSzW4sQ9DBQ79m+mlOpobPozTKtQxH8aVFoMqmg0v1fHgij1kXc0ITquwr/RZy3OSTKt9abomff3KAFQDPoMqIppTJ2bEioiIiIiIaFo4YkVERERERDQmBlZERERERERjYmBFREREREQ0JgZWREREREREY2JgRURERERENCYGVkRERERERGNiYEVERERERDQmBlZERERERERjYmBFREREREQ0JgZWREREREREY2JgRURERERENKb/H05piihD0Bh2AAAAAElFTkSuQmCC;" vertex="1" parent="1">
          <mxGeometry x="4" y="610" width="840" height="395.41" as="geometry" />
        </mxCell>
      </root>
    </mxGraphModel>
  </diagram>
</mxfile>
